<?xml version="1.0" encoding="UTF-8" standalone="no"?>
<svg width="16px" height="16px" viewBox="0 0 16 16" version="1.1" xmlns="http://www.w3.org/2000/svg" xmlns:xlink="http://www.w3.org/1999/xlink" xmlns:sketch="http://www.bohemiancoding.com/sketch/ns">
    <title>Gear</title>
    <description>Created with Sketch (http://www.bohemiancoding.com/sketch)</description>
    <defs></defs>
    <g id="Page 1" stroke="none" stroke-width="1" fill="none" fill-rule="evenodd">
        <g id="Old" transform="translate(-725.000000, -309.000000)"></g>
        <g id="Standard" transform="translate(-630.000000, -1.000000)" fill="#3E3E3E">
            <path d="M641.476534,13.890748 C640.753603,14.4055635 639.911651,14.7640978 639,14.9170416 L639,17 L637,17 L637,14.9170416 C636.088349,14.7640978 635.246397,14.4055635 634.523466,13.890748 L633.050253,15.363961 L631.636039,13.9497475 L633.109252,12.4765344 C632.594436,11.753603 632.235902,10.9116507 632.082958,10 L630,10 L630,8 L632.082958,8 C632.235902,7.08834931 632.594436,6.24639698 633.109252,5.52346558 L631.636039,4.05025253 L633.050253,2.63603897 L634.523466,4.10925202 C635.246397,3.59443647 636.088349,3.23590221 637,3.08295843 L637,1 L639,1 L639,3.08295843 C639.911651,3.23590221 640.753603,3.59443647 641.476534,4.10925202 L642.949747,2.63603897 L644.363961,4.05025253 L642.950362,5.46385117 C643.405564,6.24639698 643.764098,7.08834931 643.917042,8 L646,8 L646,10 L643.917042,10 C643.764098,10.9116507 643.405564,11.753603 642.890748,12.4765344 L644.363961,13.9497475 L642.949747,15.363961 L641.595763,14.0099768 Z M638,13 C640.209139,13 642,11.2091391 642,9 C642,6.79086089 640.209139,5 638,5 C635.790861,5 634,6.79086089 634,9 C634,11.2091391 635.790861,13 638,13 Z M638,13" id="Gear"></path>
        </g>
    </g>
</svg>